<svg version="1.1" viewBox="0.0 0.0 449.01837270341207 425.49081364829397" fill="none" stroke="none" stroke-linecap="square" stroke-miterlimit="10" xmlns:xlink="http://www.w3.org/1999/xlink" xmlns="http://www.w3.org/2000/svg"><clipPath id="p.0"><path d="m0 0l449.01837 0l0 425.4908l-449.01837 0l0 -425.4908z" clip-rule="nonzero"/></clipPath><g clip-path="url(#p.0)"><path fill="#000000" fill-opacity="0.0" d="m0 0l449.01837 0l0 425.4908l-449.01837 0z" fill-rule="evenodd"/><path fill="#000000" fill-opacity="0.0" d="m0 16.0l203.55905 0l0 374.89764l-203.55905 0z" fill-rule="evenodd"/><path fill="#ff0000" d="m18.6875 306.6l0 -19.359375l0.875 0q7.921875 0 12.3125 -3.078125q4.40625 -3.078125 4.40625 -11.59375l0 -92.390625q0 -2.9375 -1.625 -4.6875q-1.609375 -1.765625 -4.84375 -2.796875q-3.21875 -1.03125 -8.5 -2.203125l-2.625 -0.578125l0 -21.703125l63.640625 0l3.53125 36.359375l2.046875 0.296875l0 99.734375q0 0.875 2.203125 1.609375q2.203125 0.734375 5.125 0.890625q2.9375 0.140625 5.578125 0.140625l0.875 0l0 19.359375l-83.0 0zm181.85938 0l-79.5 0l0 -19.359375l0.890625 0q2.640625 0 5.71875 -0.140625q3.078125 -0.15625 5.125 -0.890625q2.0625 -0.734375 2.0625 -1.609375l0 -89.46875q0 -6.75 -1.328125 -11.140625q-1.3125 -4.40625 -4.546875 -6.59375q-3.21875 -2.203125 -9.09375 -2.203125q-6.453125 0 -12.609375 3.515625q-6.15625 3.515625 -12.765625 11.0q-6.59375 7.484375 -13.921875 19.5l0.875 -23.171875q6.75 -12.3125 15.84375 -21.546875q9.09375 -9.25 20.234375 -14.375q11.140625 -5.140625 23.765625 -5.140625q14.359375 0 24.484375 5.4375q10.125 5.421875 15.40625 16.125q5.28125 10.703125 5.28125 26.546875l0 91.515625q0 0.875 2.1875 1.609375q2.203125 0.734375 5.28125 0.890625q3.078125 0.140625 5.71875 0.140625l0.890625 0l0 19.359375zm102.078125 0l-83.015625 0l0 -19.359375l0.875 0q2.9375 0 5.875 -0.296875q2.9375 -0.296875 4.984375 -0.875q2.046875 -0.59375 2.046875 -1.46875l0 -89.46875q0 -6.75 -1.328125 -11.140625q-1.3125 -4.40625 -4.546875 -6.59375q-3.21875 -2.203125 -9.078125 -2.203125q-6.453125 0 -12.765625 3.671875q-6.296875 3.65625 -12.75 11.140625q-6.453125 7.46875 -13.796875 18.921875l0.890625 -23.171875q7.03125 -12.328125 16.125 -21.421875q9.09375 -9.09375 20.09375 -14.21875q11.0 -5.140625 23.609375 -5.140625q14.375 0 24.5 5.4375q10.125 5.421875 15.390625 16.125q5.28125 10.703125 5.28125 26.546875l0 79.484375q0 8.515625 4.546875 11.59375q4.546875 3.078125 12.171875 3.078125l0.890625 0l0 19.359375z" fill-rule="nonzero"/><path fill="#000000" fill-opacity="0.0" d="m313.95538 16.0l221.16534 0l0 374.89764l-221.16534 0z" fill-rule="evenodd"/><path fill="#ff9900" d="m402.1585 84.256256l0 188.90625q0 8.21875 4.546875 11.15625q4.546875 2.921875 12.171875 2.921875l0.875 0l0 19.359375l-86.828125 0l0 -19.359375l0.890625 0q7.90625 0 12.453125 -2.921875q4.546875 -2.9375 4.546875 -11.15625l0 -157.21875q0 -2.9375 -1.609375 -4.6875q-1.609375 -1.765625 -4.984375 -2.9375q-3.375 -1.1875 -8.65625 -2.0625l-2.640625 -0.59375l0 -21.40625l69.234375 0z" fill-rule="nonzero"/></g></svg>